<?xml version="1.0" encoding="UTF-8"?>
<svg id="Layer_2" data-name="Layer 2" xmlns="http://www.w3.org/2000/svg" xmlns:xlink="http://www.w3.org/1999/xlink" viewBox="0 0 58 39">
  <defs>
    <style>
      .cls-1 {
        fill: #9392c7;
      }

      .cls-2 {
        clip-path: url(#clippath);
      }

      .cls-3 {
        fill: none;
      }
    </style>
    <clipPath id="clippath">
      <rect class="cls-3" width="58" height="39"/>
    </clipPath>
  </defs>
  <g id="Layer_1-2" data-name="Layer 1">
    <g class="cls-2">
      <g>
        <path class="cls-1" d="m56.33,2.16h-2.04c-.35,0-.69.1-.97.28-.28.18-.5.44-.61.75l-12.74,33.34c-.09.23-.11.48-.08.72.04.24.14.47.29.67.16.2.36.36.6.47.24.11.5.17.77.17h2.04c.35,0,.69-.1.97-.28.28-.18.5-.44.61-.74L57.91,4.19c.09-.23.11-.48.08-.72-.04-.24-.14-.47-.29-.67-.16-.2-.36-.36-.6-.47-.24-.11-.5-.17-.77-.17Z"/>
        <path class="cls-1" d="m10.29,12.76v-1.52c0-.41-.18-.8-.49-1.08-.31-.29-.74-.45-1.19-.45h-3.21v-1.41c0-1.65.4-2.63.77-2.99l.02-.02c.25-.22.56-.38.91-.45,1.19-.17,2.39-.26,3.59-.25h.62c.45,0,.87-.16,1.19-.45s.49-.68.49-1.08v-1.37c0-.36-.13-.7-.38-.97-.25-.27-.59-.46-.98-.53-.2-.04-.43-.07-.68-.11C10.62.02,8.96,0,8.63,0h-.02C5.9,0,3.6.58,2.06,2.09.55,3.6,0,5.74,0,8.34v28.68c0,.4.18.79.49,1.08.31.29.74.45,1.18.45h2.05c.22,0,.44-.04.64-.12.2-.08.39-.19.54-.33.16-.14.28-.31.36-.5.08-.19.13-.38.13-.59V14.29h3.21c.22,0,.44-.04.64-.12.2-.08.39-.19.54-.33.16-.14.28-.31.36-.5.08-.19.13-.39.13-.59"/>
        <path class="cls-1" d="m31.58,10.63c-2-1-4.25-1.49-6.52-1.41-2.24-.05-4.47.36-6.51,1.21-1.83.79-3.37,2.04-4.43,3.62h0c-.14.22-.22.46-.22.71,0,.29.1.57.28.81.18.24.44.41.74.51l1.65.54c.46.15.95.16,1.42.04.47-.12.88-.37,1.19-.71.16-.17.32-.34.5-.5,1.08-.95,2.68-1.52,5.17-1.53,1.07-.02,2.14.13,3.15.45.73.24,1.37.65,1.86,1.19.93,1.04,1.52,2.66,1.57,4.97-2.4.03-4.53.13-6.36.28-2.31.19-4.59.62-6.79,1.29h-.03c-2.01.51-3.82,1.53-5.21,2.95-1.29,1.49-1.97,3.34-1.89,5.24v.05c-.04,1.66.46,3.29,1.43,4.69.97,1.35,2.36,2.4,3.99,3.02,1.81.68,3.76,1,5.72.96,1.51-.02,3-.27,4.41-.75,1.59-.53,3.06-1.32,4.33-2.33.26-.2.49-.41.72-.62.15.89.48,1.75.98,2.54.15.22.36.41.61.54.25.13.53.19.82.19h.98c.44-.01.86-.18,1.17-.46.31-.29.48-.67.49-1.08v-16.41c.05-2.01-.37-4.01-1.22-5.87-.82-1.72-2.21-3.16-3.99-4.1Zm-1.37,19.42c-.81,1.28-1.94,2.36-3.32,3.15-1.34.78-2.89,1.18-4.47,1.16-1.6.1-3.19-.31-4.49-1.17-.45-.33-.81-.76-1.05-1.24-.25-.55-.37-1.15-.36-1.75-.01-.7.18-1.4.56-2.01.51-.68,1.22-1.21,2.06-1.51,1.66-.64,3.42-1.05,5.21-1.24,2.35-.28,4.71-.43,7.08-.45v.95c0,1.45-.42,2.87-1.22,4.11"/>
      </g>
    </g>
  </g>
</svg>