<?xml version="1.0" encoding="UTF-8"?>
<svg id="Layer_1" data-name="Layer 1" xmlns="http://www.w3.org/2000/svg" xmlns:xlink="http://www.w3.org/1999/xlink" viewBox="0 0 50 47.14">
  <defs>
    <style>
      .cls-1 {
        fill: #fff;
      }

      .cls-2 {
        clip-path: url(#clippath);
      }

      .cls-3 {
        fill: none;
      }

      .cls-4 {
        fill-rule: evenodd;
      }
    </style>
    <clipPath id="clippath">
      <rect class="cls-3" y="0" width="50" height="47.14"/>
    </clipPath>
  </defs>
  <g class="cls-2">
    <g>
      <path class="cls-1" d="m3.01,2.03L30.67.11c3.4-.27,4.27-.09,6.41,1.38l8.83,5.87c1.46,1.01,1.94,1.28,1.94,2.38v32.17c0,2.02-.78,3.21-3.49,3.39l-32.13,1.83c-2.04.09-3.01-.18-4.08-1.47l-6.5-7.97c-1.17-1.47-1.65-2.57-1.65-3.85V5.24c0-1.65.78-3.02,3.01-3.21Z"/>
      <path class="cls-4" d="m30.67.11L3.01,2.03c-2.23.18-3.01,1.56-3.01,3.21v28.6c0,1.28.48,2.38,1.65,3.85l6.5,7.97c1.07,1.28,2.04,1.56,4.08,1.47l32.13-1.83c2.72-.18,3.49-1.38,3.49-3.39V9.73c0-1.04-.44-1.34-1.72-2.23l-9.05-6.02C34.95.02,34.07-.17,30.67.11h0ZM12.96,9.2c-2.62.17-3.22.2-4.71-.94l-3.79-2.84c-.39-.37-.19-.83.78-.92l26.6-1.83c2.23-.18,3.4.55,4.27,1.19l4.56,3.12c.2.09.68.64.1.64l-27.47,1.56-.34.02Zm-3.06,32.42V14.32c0-1.19.39-1.74,1.55-1.84l31.55-1.74c1.07-.09,1.55.55,1.55,1.74v27.13c0,1.19-.19,2.2-1.94,2.29l-30.19,1.65c-1.75.09-2.52-.46-2.52-1.92h0Zm29.8-25.85c.19.82,0,1.65-.88,1.74l-1.46.27v20.16c-1.26.64-2.43,1.01-3.4,1.01-1.55,0-1.94-.46-3.1-1.83l-9.51-14.11v13.66l3.01.64s0,1.65-2.43,1.65l-6.69.37c-.19-.37,0-1.28.68-1.47l1.75-.46v-18.06l-2.43-.19c-.19-.82.29-2.02,1.65-2.11l7.18-.46,9.9,14.3v-12.65l-2.52-.27c-.2-1.01.58-1.74,1.55-1.83l6.7-.37Z"/>
    </g>
  </g>
</svg>